<svg xmlns="http://www.w3.org/2000/svg" version="1.1" xmlns:xlink="http://www.w3.org/1999/xlink" xmlns:svgjs="http://svgjs.dev/svgjs" width="1500" height="1500" viewBox="0 0 1500 1500"><rect width="1500" height="1500" fill="#000000"></rect><g transform="matrix(0.6666666666666666,0,0,0.6666666666666666,249.3939393939395,637.3710445313121)"><svg viewBox="0 0 396 89" data-background-color="#ffffff" preserveAspectRatio="xMidYMid meet" height="337" width="1500" xmlns="http://www.w3.org/2000/svg" xmlns:xlink="http://www.w3.org/1999/xlink"><g id="tight-bounds" transform="matrix(1,0,0,1,0.23999999999995225,0.11710847201726438)"><svg viewBox="0 0 395.52 88.76578305596546" height="88.76578305596546" width="395.52"><g><svg viewBox="0 0 525.6015902355186 117.95974093020959" height="88.76578305596546" width="395.52"><g transform="matrix(1,0,0,1,130.08159023551872,33.30625411844283)"><svg viewBox="0 0 395.52 51.34723269332393" height="51.34723269332393" width="395.52"><g id="textblocktransform"><svg viewBox="0 0 395.52 51.34723269332393" height="51.34723269332393" width="395.52" id="textblock"><g><svg viewBox="0 0 395.52 51.34723269332393" height="51.34723269332393" width="395.52"><g transform="matrix(1,0,0,1,0,0)"><svg width="395.52" viewBox="0.85 -36.25 283.83 36.85" height="51.34723269332393" data-palette-color="#252422"><path d="M25.85 0L13.05 0 0.85-34.4 12.65-34.4 19.55-11.4 19.75-11.4 26.7-34.4 38-34.4 25.85 0ZM83.1 0L72.15 0 72.15-12.4Q72.15-14.7 72.32-17.13 72.5-19.55 72.7-21.2 72.9-22.85 72.95-23.3L72.95-23.3 72.75-23.3 66.4 0 57.75 0 51.35-23.25 51.15-23.25Q51.2-22.8 51.42-21.18 51.65-19.55 51.85-17.13 52.05-14.7 52.05-12.4L52.05-12.4 52.05 0 41.9 0 41.9-34.4 57.5-34.4 62.7-14.55 62.9-14.55 68.05-34.4 83.1-34.4 83.1 0ZM120.89-35Q127.49-35 131.74-32.33 135.99-29.65 136.09-24.4L136.09-24.4 136.09-23.8 125.74-23.8 125.74-24Q125.74-25.5 124.64-26.5 123.54-27.5 121.29-27.5L121.29-27.5Q119.09-27.5 117.92-26.85 116.74-26.2 116.74-25.25L116.74-25.25Q116.74-23.9 118.34-23.25 119.94-22.6 123.49-21.9L123.49-21.9Q127.64-21.05 130.32-20.13 132.99-19.2 134.99-17.1 136.99-15 137.04-11.4L137.04-11.4Q137.04-5.3 132.92-2.35 128.79 0.6 121.89 0.6L121.89 0.6Q113.84 0.6 109.37-2.1 104.89-4.8 104.89-11.65L104.89-11.65 115.34-11.65Q115.34-9.05 116.69-8.18 118.04-7.3 120.89-7.3L120.89-7.3Q122.99-7.3 124.37-7.75 125.74-8.2 125.74-9.6L125.74-9.6Q125.74-10.85 124.22-11.48 122.69-12.1 119.24-12.8L119.24-12.8Q115.04-13.7 112.29-14.68 109.54-15.65 107.49-17.9 105.44-20.15 105.44-24L105.44-24Q105.44-29.65 109.82-32.33 114.19-35 120.89-35L120.89-35ZM155.49-27Q161.99-27 166.02-24.23 170.04-21.45 170.04-15.75L170.04-15.75 160.39-15.75Q160.39-20.25 155.49-20.25L155.49-20.25Q150.59-20.25 150.59-14.6L150.59-14.6 150.59-11.75Q150.59-6.15 155.69-6.15L155.69-6.15Q160.79-6.15 160.79-10.75L160.79-10.75 170.04-10.75Q170.04-5 166.02-2.2 161.99 0.6 155.49 0.6L155.49 0.6Q148.54 0.6 144.59-2.9 140.64-6.4 140.64-13.2L140.64-13.2Q140.64-20 144.59-23.5 148.54-27 155.49-27L155.49-27ZM184.29-23.65Q185.89-25.25 188.04-26.13 190.19-27 192.54-27L192.54-27Q197.14-27 199.44-24.45 201.74-21.9 201.74-17.1L201.74-17.1 201.74 0 191.79 0 191.79-15.9Q191.79-17.6 190.91-18.63 190.04-19.65 188.44-19.65L188.44-19.65Q186.59-19.65 185.44-18.45 184.29-17.25 184.29-15.5L184.29-15.5 184.29 0 174.34 0 174.34-36.25 184.29-36.25 184.29-23.65ZM221.34-27Q228.29-27 232.26-23.48 236.24-19.95 236.24-13.2L236.24-13.2Q236.24-6.45 232.26-2.93 228.29 0.6 221.34 0.6L221.34 0.6Q214.39 0.6 210.44-2.9 206.49-6.4 206.49-13.2L206.49-13.2Q206.49-20 210.44-23.5 214.39-27 221.34-27L221.34-27ZM221.34-20.25Q216.44-20.25 216.44-14.6L216.44-14.6 216.44-11.75Q216.44-6.15 221.34-6.15L221.34-6.15Q226.29-6.15 226.29-11.75L226.29-11.75 226.29-14.6Q226.29-20.25 221.34-20.25L221.34-20.25ZM254.68-27Q261.63-27 265.61-23.48 269.58-19.95 269.58-13.2L269.58-13.2Q269.58-6.45 265.61-2.93 261.63 0.6 254.68 0.6L254.68 0.6Q247.73 0.6 243.78-2.9 239.83-6.4 239.83-13.2L239.83-13.2Q239.83-20 243.78-23.5 247.73-27 254.68-27L254.68-27ZM254.68-20.25Q249.78-20.25 249.78-14.6L249.78-14.6 249.78-11.75Q249.78-6.15 254.68-6.15L254.68-6.15Q259.63-6.15 259.63-11.75L259.63-11.75 259.63-14.6Q259.63-20.25 254.68-20.25L254.68-20.25ZM284.68 0L274.73 0 274.73-36.25 284.68-36.25 284.68 0Z" opacity="1" transform="matrix(1,0,0,1,0,0)" fill="#ffffff" class="wordmark-text-0" data-fill-palette-color="primary" id="text-0"></path></svg></g></svg></g></svg></g></svg></g><g><svg viewBox="0 0 117.95974093020959 117.95974093020959" height="117.95974093020959" width="117.95974093020959"><g><svg></svg></g><g id="icon-0"><svg viewBox="0 0 117.95974093020959 117.95974093020959" height="117.95974093020959" width="117.95974093020959"><g><rect width="107.2559866606165" height="107.2559866606165" x="5.3518771347965455" y="5.3518771347965455" fill="#ffffff" data-fill-palette-color="accent"></rect><rect width="107.2559866606165" height="107.2559866606165" x="10.703754269593091" y="0" fill="#ffffff" opacity="0.5" data-fill-palette-color="accent"></rect></g><g transform="matrix(1,0,0,1,15.291077527990133,15.54577249703086)"><svg viewBox="0 0 87.37758587422933 86.86819593614787" height="86.86819593614787" width="87.37758587422933"><g><svg xmlns="http://www.w3.org/2000/svg" viewBox="20 20.173631984616488 60.018743579525974 59.668848995350714" x="0" y="0" height="86.86819593614787" width="87.37758587422933" class="icon-cg-0" data-fill-palette-color="quaternary" id="cg-0"><g data-name="Calque 2" fill="#ffffff" data-fill-palette-color="quaternary"><path d="M23.82 23.07A1.82 1.82 0 1 1 22 24.88 1.82 1.82 0 0 1 23.82 23.07Zm0 5.58a3.73 3.73 0 0 0 2-0.56c2.07 1.44 9.08 6.45 10.21 7.14a6.25 6.25 0 0 0 3.19 1.25c0.63 0 2 0.06 4.13 0.06A2.75 2.75 0 0 0 45.8 38a2.76 2.76 0 1 0-2.69-3.32c-1.94 0-3.26 0-3.82-0.06A3.81 3.81 0 0 1 37 33.71c-1-0.63-7.64-5.39-9.9-7A4 4 0 0 0 27.57 25a3.7 3.7 0 0 0-3.7-3.7 3.74 3.74 0 0 0-3.7 3.7A3.6 3.6 0 0 0 23.82 28.64Z" fill="#000000" data-fill-palette-color="quaternary"></path><path d="M22.13 44.61a1.82 1.82 0 1 1 1.82 1.82A1.78 1.78 0 0 1 22.13 44.61Zm5.39 0.94H33a2.71 2.71 0 0 0 2.57 1.82 2.76 2.76 0 0 0 0-5.51A2.71 2.71 0 0 0 33 43.67H27.52a3.76 3.76 0 0 0-3.57-2.76 3.7 3.7 0 0 0-3.7 3.7 3.74 3.74 0 0 0 3.7 3.7A3.52 3.52 0 0 0 27.52 45.55Z" fill="#000000" data-fill-palette-color="quaternary"></path><path d="M28.33 49.87a1.82 1.82 0 1 1-1.82 1.82A1.82 1.82 0 0 1 28.33 49.87Zm0 5.58a3.7 3.7 0 0 0 3.57-2.76H33a2.72 2.72 0 0 0 2.57 1.82 2.76 2.76 0 0 0 0-5.51A2.71 2.71 0 0 0 33 50.81H31.9a3.76 3.76 0 0 0-3.57-2.76 3.7 3.7 0 0 0 0 7.39Z" fill="#000000" data-fill-palette-color="quaternary"></path><path d="M23.7 75.24a1.82 1.82 0 1 1 1.82-1.82A1.78 1.78 0 0 1 23.7 75.24Zm1.06-5.39V63.4c0-2.94 1-3.57 2.69-3.57 2.07 0 4.38 0 5.39 0.06a2.73 2.73 0 0 0 2.63 1.82 2.76 2.76 0 1 0 0-5.51A2.71 2.71 0 0 0 32.9 58c-1.06 0-3.38-0.06-5.39-0.06-4.64 0-4.64 4.07-4.64 5.45v6.39A3.76 3.76 0 0 0 20 73.42a3.7 3.7 0 0 0 3.7 3.7 3.74 3.74 0 0 0 3.7-3.7A3.58 3.58 0 0 0 24.76 69.86Z" fill="#000000" data-fill-palette-color="quaternary"></path><path d="M75.06 75.24a1.82 1.82 0 1 1 1.82-1.82A1.82 1.82 0 0 1 75.06 75.24Zm0.81-5.45V63.4c0-1.31 0-5.45-4.57-5.45-2.07 0-4.38 0-5.39 0.06a2.71 2.71 0 0 0-2.57-1.82 2.76 2.76 0 1 0 0 5.51A2.85 2.85 0 0 0 66 59.9c1.06 0 3.38-0.06 5.39-0.06C73 59.83 74 60.4 74 63.4v6.45a3.7 3.7 0 0 0 1 7.26 3.71 3.71 0 0 0 0.82-7.33Z" fill="#000000" data-fill-palette-color="quaternary"></path><path d="M72.42 23.69A1.57 1.57 0 1 1 74 25.26 1.59 1.59 0 0 1 72.42 23.69ZM63.59 47.37A2.76 2.76 0 0 0 66 45.86h4.57c4.26 0 4.26-3.76 4.26-5V27a3.46 3.46 0 1 0-4.26-3.38A3.44 3.44 0 0 0 73.05 27v13.9c0 2.63-0.82 3.13-2.38 3.13H66.35a2.75 2.75 0 0 0-5.45 0.56A2.63 2.63 0 0 0 63.59 47.37Z" fill="#000000" data-fill-palette-color="quaternary"></path><path d="M76.37 50.13a1.82 1.82 0 1 1-1.82 1.82A1.78 1.78 0 0 1 76.37 50.13Zm-13 4.57A2.71 2.71 0 0 0 66 52.88h6.77a3.76 3.76 0 0 0 3.57 2.76A3.7 3.7 0 1 0 72.74 51H66a2.71 2.71 0 0 0-2.57-1.82 2.78 2.78 0 0 0-2.76 2.76A2.73 2.73 0 0 0 63.4 54.7Z" fill="#000000" data-fill-palette-color="quaternary"></path><rect x="40.48" y="39.98" width="18.04" height="23.93" rx="3.95" ry="3.95" fill="#000000" data-fill-palette-color="quaternary"></rect><path d="M40.48 24.45a1.82 1.82 0 1 1-1.82 1.82A1.86 1.86 0 0 1 40.48 24.45Zm0 5.58A3.7 3.7 0 0 0 44 27.33h6.26c0.69 0 1.31 0 1.57 0.25s0.31 0.44 0.31 1.25c0 1.13 0 2.63-0.06 3.82a2.76 2.76 0 1 0 3.76 2.57 2.76 2.76 0 0 0-1.94-2.63c0-1.19 0.06-2.63 0.06-3.76a3.32 3.32 0 0 0-0.82-2.57 3.69 3.69 0 0 0-2.88-0.75h-6.2A3.71 3.71 0 1 0 40.48 30Z" fill="#000000" data-fill-palette-color="quaternary"></path><path d="M35 76.18a1.82 1.82 0 1 1-1.82-1.82A1.78 1.78 0 0 1 35 76.18ZM45.8 66A2.71 2.71 0 0 0 43.3 67.6h-7c-1.31 0-4.07 0-4.07 3.7v1.25a3.68 3.68 0 0 0 0.88 7.27 3.74 3.74 0 0 0 3.7-3.7 3.7 3.7 0 0 0-2.69-3.57c0-0.37-0.06-0.82-0.06-1.25 0-1.69 0.56-1.82 2.19-1.82h6.83a2.69 2.69 0 0 0 2.63 2 2.78 2.78 0 0 0 2.76-2.76A2.69 2.69 0 0 0 45.8 66Z" fill="#000000" data-fill-palette-color="quaternary"></path><path d="M62.71 78a1.82 1.82 0 0 1-1.82-1.82 1.87 1.87 0 0 1 1.82-1.88 1.82 1.82 0 0 1 1.82 1.82A1.87 1.87 0 0 1 62.71 78Zm0.88-5.45V71.29c0-3.7-2.76-3.7-4.07-3.7H55.7A2.67 2.67 0 0 0 53.2 66a2.76 2.76 0 1 0 2.63 3.51h3.7c1.63 0 2.19 0.12 2.19 1.82a8.09 8.09 0 0 1-0.06 1.25 3.7 3.7 0 1 0 4.7 3.57A3.57 3.57 0 0 0 63.59 72.55Z" fill="#000000" data-fill-palette-color="quaternary"></path></g></svg></g></svg></g></svg></g></svg></g></svg></g><defs></defs></svg><rect width="395.52" height="88.76578305596546" fill="none" stroke="none" visibility="hidden"></rect></g></svg></g></svg>